HIERARCHY
ROOT Hips
{
  OFFSET 279.157 85.6768 304.565
  CHANNELS 6 Xposition Yposition Zposition Zrotation Xrotation Yrotation
  JOINT LeftUpLeg
  {
    OFFSET 8.64259 1.95398 -2.38835
    CHANNELS 3 Zrotation Xrotation Yrotation
    JOINT LeftLeg
    {
      OFFSET 43.7702 0 0
      CHANNELS 3 Zrotation Xrotation Yrotation
      JOINT LeftFoot
      {
        OFFSET 40.6238 0 0
        CHANNELS 3 Zrotation Xrotation Yrotation
        JOINT LeftToeBase
        {
          OFFSET 12.7242 0 0
          CHANNELS 3 Zrotation Xrotation Yrotation
          End Site
          {
            OFFSET 0 0 0
          }
        }
      }
    }
  }
  JOINT RightUpLeg
  {
    OFFSET -8.2249 1.95398 -2.59336
    CHANNELS 3 Zrotation Xrotation Yrotation
    JOINT RightLeg
    {
      OFFSET 43.5653 0 0
      CHANNELS 3 Zrotation Xrotation Yrotation
      JOINT RightFoot
      {
        OFFSET 40.6238 0 0
        CHANNELS 3 Zrotation Xrotation Yrotation
        JOINT RightToeBase
        {
          OFFSET 12.7242 0 0
          CHANNELS 3 Zrotation Xrotation Yrotation
          End Site
          {
            OFFSET 0 0 0
          }
        }
      }
    }
  }
  JOINT Spine
  {
    OFFSET 0.165834 0.87714 6.61349
    CHANNELS 3 Zrotation Xrotation Yrotation
    JOINT Spine1
    {
      OFFSET 7.38963 1.71661e-005 0
      CHANNELS 3 Zrotation Xrotation Yrotation
      JOINT Spine2
      {
        OFFSET 11.9445 1.14441e-005 0
        CHANNELS 3 Zrotation Xrotation Yrotation
        JOINT Spine3
        {
          OFFSET 14.7254 4.19617e-005 0
          CHANNELS 3 Zrotation Xrotation Yrotation
          JOINT Spine4
          {
            OFFSET 10.9679 0 0
            CHANNELS 3 Zrotation Xrotation Yrotation
            JOINT RightShoulder
            {
              OFFSET 2.46616 -1.6653 3.69651
              CHANNELS 3 Zrotation Xrotation Yrotation
              JOINT RightArm
              {
                OFFSET 13.0012 0 0
                CHANNELS 3 Zrotation Xrotation Yrotation
                JOINT RightForeArm
                {
                  OFFSET 28.7848 1.52588e-005 0
                  CHANNELS 3 Zrotation Xrotation Yrotation
                  JOINT RightHand
                  {
                    OFFSET 26.5688 1.52588e-005 0
                    CHANNELS 3 Zrotation Xrotation Yrotation
                    End Site
                    {
                      OFFSET 0 0 0
                    }
                  }
                }
              }
            }
            JOINT LeftShoulder
            {
              OFFSET 2.38034 -1.29275 -3.7523
              CHANNELS 3 Zrotation Xrotation Yrotation
              JOINT LeftArm
              {
                OFFSET 16.3182 6.10351e-005 0
                CHANNELS 3 Zrotation Xrotation Yrotation
                JOINT LeftForeArm
                {
                  OFFSET 27.0901 0 0
                  CHANNELS 3 Zrotation Xrotation Yrotation
                  JOINT LeftHand
                  {
                    OFFSET 24.5451 1.52588e-005 0
                    CHANNELS 3 Zrotation Xrotation Yrotation
                    End Site
                    {
                      OFFSET 0 0 0
                    }
                  }
                }
              }
            }
            JOINT Neck
            {
              OFFSET 5.0226 -0.0266342 0
              CHANNELS 3 Zrotation Xrotation Yrotation
              JOINT Head
              {
                OFFSET 6.69364 2.86102e-005 0
                CHANNELS 3 Zrotation Xrotation Yrotation
                End Site
                {
                  OFFSET 0 0 0
                }
              }
            }
          }
        }
      }
    }
  }
}
MOTION
Frames:	18
Frame Time:	0.0416667
-298.793 89.8815 296.236 93.3968 27.296 84.9031 -168.242 39.3681 89.1808 -59.6123 0.287543 -2.57082 78.9912 11.3151 3.7128 23.3216 -2.26515 -2.32303 173.231 -13.3749 83.1391 -36.2095 -27.7787 -8.04634 68.723 -8.04532 -4.45313 45.4644 -5.28403 11.5749 3.98745 8.00306 -89.946 10.9123 7.96383 -0.643787 -0.734493 7.92776 -0.995902 -23.4608 7.7868 1.79452 -3.44815 7.78681 1.79452 95.6075 -14.7624 -99.8061 33.479 11.4533 -8.35616 -41.91 -8.71021 -95.4104 -43.8232 0.164308 -12.8971 -88.8371 -48.1694 80.1041 -14.1791 36.7427 47.1632 75.7253 -7.66385 -85.6738 34.7089 -3.17698 -13.5555 26.3625 -6.6863 3.60303 -21.7518 -7.44803 -2.02408 
-288.958 90.5083 286.962 87.9981 43.3757 89.5245 -178.041 42.8184 87.606 -36.1487 11.2342 -0.901433 68.9508 6.84829 2.92608 26.0735 -1.08441 -1.43094 176.394 -14.1268 91.7482 -35.7261 -19.2509 -5.197 57.719 1.87229 -2.84651 26.0588 -0.89826 12.6368 2.75333 7.65932 -89.4275 11.5539 5.74528 0.548773 -0.104245 5.76381 0.294508 -22.7302 5.31402 2.25495 -2.71752 5.31404 2.25495 94.2152 -12.2808 -104.637 32.7098 18.7235 -8.56784 -44.192 -8.21002 -100.327 -41.9793 -0.0455588 -13.3217 -86.4925 -32.8895 80.7891 -24.0264 31.5475 48.0892 74.0077 -10.8991 -86.9185 32.7608 -0.677835 -6.42508 24.625 -12.0522 -6.31427 -19.1721 -9.53024 0.602833 
-278.883 91.1862 276.65 89.1501 42.7319 89.1485 -176.34 36.1148 87.6656 -24.3682 11.3358 -2.50147 70.1944 7.47455 0.545746 22.8003 -4.64883 4.68837 177.35 -14.9837 92.3916 -43.8108 -19.1266 -5.61217 60.9526 -0.381515 -2.51428 18.3089 1.32257 10.1614 2.85215 7.41259 -89.5268 12.061 5.89426 0.304105 0.403561 5.90192 0.0434602 -22.2298 5.52952 2.06693 -2.21716 5.52952 2.06693 94.3333 -13.0434 -103.949 35.2334 4.10869 -5.3616 -45.289 -3.35856 -98.728 -39.6486 0.572816 -15.2934 -87.3253 -37.717 80.3141 -23.6706 30.0561 49.7428 75.155 -11.7423 -87.5188 39.1168 -0.120262 -4.42836 19.4163 -10.9396 -4.95828 -17.121 -9.00883 -0.616673 
-270.057 91.0684 266.976 92.6862 42.8714 88.986 -174.998 32.801 89.6364 -29.7828 9.3888 -2.8254 60.3522 -0.214078 0.858762 23.6827 -2.70308 -0.0811753 175.054 -10.2076 92.1529 -57.8013 -9.23091 -2.37757 63.9961 -2.39233 -0.987143 21.2618 0.266561 11.621 2.34214 7.4079 -89.9321 12.076 4.68819 -0.380865 0.413359 4.66687 -0.587292 -22.1877 4.58547 1.0488 -2.17505 4.58547 1.0488 93.0079 -17.6849 -105.241 40.1957 -10.2029 0.854931 -44.9992 -0.529375 -89.4473 -37.4278 1.18908 -17.3076 -87.5201 -45.1539 81.5616 -19.6492 24.0625 39.6368 78.3138 -5.88047 -89.8027 35.6601 0.64336 -2.24531 16.9296 -8.54929 -4.02061 -17.0837 -7.2124 0.131795 
-261.859 90.3144 258.419 95.6316 42.5801 84.9459 -171.428 30.5936 87.0579 -44.943 11.7244 -4.05133 70.0515 6.98493 3.97431 14.7524 -8.8261 2.83789 172.313 2.48429 89.3302 -76.8035 -3.22542 -2.02865 67.9433 -5.60901 -3.57047 12.863 4.12662 5.12733 1.50484 7.58807 -89.7058 11.6978 3.13118 0.258365 0.0306683 3.13952 0.120159 -22.5314 2.90865 1.18825 -2.51871 2.90864 1.18824 92.8357 -23.0826 -103.418 46.1932 -18.7321 7.21325 -45.5004 -11.1703 -78.3618 -37.1305 0.466209 -15.8031 -88.5444 -52.053 81.2904 -14.8001 14.5181 25.1397 82.2851 2.27249 -92.0255 35.1434 1.81014 1.22271 16.6366 -5.69883 -6.4609 -16.0563 -4.00439 2.32976 
-254.02 89.3412 250.762 97.8266 37.8748 77.4625 -167.807 21.3171 82.7196 -49.3699 7.17443 -6.21855 76.3796 12.3554 4.84588 24.3395 -2.22544 -0.452193 177.216 18.4143 84.6919 -89.8721 -0.676357 -4.52767 70.7315 -8.10347 -4.73418 16.636 2.37976 7.58835 0.972353 7.87748 -88.8351 11.0875 2.47573 2.07408 -0.582568 2.5646 1.96309 -23.1151 1.73818 2.72204 -3.10245 1.7382 2.72203 91.064 -28.5758 -105.152 47.2921 -12.7975 14.4323 -43.6776 -26.3169 -66.544 -37.5696 -0.810105 -12.8901 -89.906 -55.5821 79.9967 -10.5241 8.79819 7.24761 86.905 7.82252 -95.6117 49.1587 4.27188 4.62187 17.0753 -2.76868 -9.77546 -16.4703 -0.312409 3.52625 
-246.471 88.2462 243.322 97.7849 35.9158 78.2994 -167.399 14.3151 83.964 -52.5789 2.65532 -5.60022 87.7194 19.0425 0.139552 24.9149 -3.81178 6.24389 -178.261 33.4401 88.761 -90.8723 -0.0842279 -4.65351 71.9653 -9.23345 -6.84463 19.5539 0.294963 13.5171 0.323851 7.79905 -88.9636 11.2704 1.12706 1.94833 -0.401856 1.2117 1.89686 -22.9237 0.489674 2.19684 -2.91106 0.489677 2.19684 91.823 -27.2572 -104.066 47.6814 -4.29754 23.1396 -50.674 -37.8725 -65.5781 -29.8861 -2.65649 -9.1098 -90.4291 -56.3873 79.4218 -4.32913 7.29371 -10.3225 90.6585 7.21761 -96.2689 43.5051 -2.0815 -8.09611 15.3539 1.82421 -6.55233 -15.8676 3.41413 1.43918 
-237.311 88.9458 233.882 99.7314 38.5239 79.3742 -169.33 -0.0627908 85.1004 -45.8979 0.131239 -3.43839 90.5438 21.4694 -1.29428 32.4752 0.722554 6.33534 -179.475 38.8833 91.0846 -77.9012 0.249379 -3.95398 75.5882 -9.23498 -4.22924 18.2074 1.60561 9.07888 -0.760597 7.74583 -89.3336 11.3868 -1.20263 1.4488 -0.284363 -1.1377 1.50031 -22.8209 -1.58243 1.02039 -2.80821 -1.58243 1.02039 93.95 -24.6086 -100.413 47.3312 -2.9793 32.8933 -42.1335 -39.7491 -60.4602 -35.7884 -1.69733 -11.3426 -90.2471 -54.2144 79.2488 3.0833 3.78787 -23.039 78.6989 9.69458 -92.5538 39.0421 3.30515 4.50629 13.2215 6.40776 -4.04578 -16.2778 7.1671 1.14898 
-227.836 89.6018 224.725 100.402 39.3309 80.9539 -169.995 -10.4854 87.8553 -38.4887 2.00396 -2.09462 84.9245 18.6828 1.64259 39.1926 4.45721 8.66347 -179.145 39.1104 91.9599 -54.4709 1.367 -2.8246 77.2543 -8.83676 1.16531 4.52311 5.14475 9.55804 -1.69653 7.64425 -89.6512 11.6034 -3.2112 1.02746 -0.0641235 -3.16288 1.16791 -22.6311 -3.37136 0.0138012 -2.61847 -3.37139 0.0137984 95.3359 -20.2714 -98.6073 46.5164 -3.59649 40.2167 -36.7523 -36.2244 -56.8908 -36.5778 0.295031 -17.6656 -89.3447 -46.6579 79.0034 2.12787 -1.96846 -27.2652 77.5047 10.108 -92.7986 41.0718 3.94558 5.73838 11.9818 10.6614 -3.46865 -17.1903 10.8836 3.25642 
-217.268 90.2979 214.55 101.943 40.2962 81.5262 -170.394 -20.7535 90.2439 -32.9254 3.10261 -0.318705 72.1971 8.44838 2.78312 43.9959 7.60589 5.04012 179.877 30.7826 92.8885 -25.0815 -8.65683 -1.01726 62.5563 -2.1893 1.08121 21.0805 1.71341 4.88213 -2.58437 7.70042 -90.0085 11.4963 -5.14564 0.510278 -0.16461 -5.11817 0.736835 -22.7799 -5.06049 -1.0639 -2.76729 -5.06047 -1.06389 96.5917 -15.08 -97.0754 45.022 -2.68785 44.6837 -42.9353 -34.9765 -63.1076 -36.6557 0.335331 -18.69 -88.4498 -39.714 78.8695 -2.9433 -9.94888 -26.8033 75.3876 10.3939 -94.0161 41.3333 4.37369 6.74304 13.3169 14.4298 -1.0096 -19.5423 13.7797 4.23591 
-207.058 90.3596 205.066 100.371 43.5852 83.5796 -170.698 -22.1298 92.3429 -36.9735 5.81257 2.1161 64.475 2.29606 2.51353 31.0513 0.829714 1.9851 -179.103 25.997 92.5379 -9.45489 -15.3485 -1.34107 59.7809 -2.4424 -1.70693 22.6914 0.966176 6.07746 -3.11503 7.41258 -90.4295 12.0612 -6.39532 -0.153227 0.406071 -6.39584 0.129564 -22.2462 -6.05246 -2.07534 -2.23355 -6.05246 -2.07534 97.0377 -12.9548 -96.5398 41.5389 2.33126 51.095 -40.2581 -26.725 -64.9486 -34.6379 2.15277 -24.3475 -88.2269 -36.296 78.4413 -8.41562 -12.4459 -27.5381 74.5849 11.4336 -93.575 44.9436 4.65922 6.44495 14.2364 15.4838 1.00994 -21.0819 14.0511 5.48576 
-197.989 89.1913 196.778 102.259 46.0032 80.6213 -169.778 -18.1826 92.7249 -52.1869 5.52158 2.34817 63.5935 2.5339 3.39457 25.8614 -1.4246 -0.529981 179.642 30.8334 90.3458 -25.6964 -14.6012 -2.06218 53.5901 3.41979 0.852023 15.0589 3.23758 5.95975 -3.09161 7.41088 -90.3205 12.0723 -6.29746 0.0539534 0.416686 -6.28893 0.332169 -22.2342 -6.02144 -1.84823 -2.22158 -6.02144 -1.84824 96.3509 -17.1483 -97.1249 37.6521 7.13572 50.4218 -39.0178 -27.4151 -65.0187 -40.2626 2.08949 -21.3746 -88.4998 -40.7248 79.0265 -9.98961 -8.56299 -29.4161 74.4771 9.37387 -93.3407 43.9639 3.89544 4.91173 16.2852 14.6897 2.35543 -19.8765 13.1499 3.74829 
-190.409 87.5681 189.189 105.038 45.6669 79.8752 -167.474 -7.96011 94.1607 -72.772 1.51464 2.46161 62.438 2.18284 4.46255 27.7939 0.209758 -3.13411 176.307 34.8817 91.7712 -47.3573 -16.9408 -0.319645 60.1261 0.401464 -2.82141 12.8563 3.54974 7.1836 -2.45125 7.74582 -90.513 11.3799 -5.1168 -0.507268 -0.280971 -5.13414 -0.280984 -22.8871 -4.72727 -2.02496 -2.87448 -4.72728 -2.02496 95.0064 -23.4578 -98.4134 38.281 7.35906 38.156 -38.982 -29.5081 -65.804 -41.0955 1.06487 -17.8897 -90.3328 -49.385 78.0947 -8.9095 -3.95721 -26.0877 77.6778 7.50047 -94.6572 42.8469 4.84461 7.44491 17.926 13.6326 5.24118 -16.7186 11.6982 0.437776 
-184.703 87.1379 182.984 104.308 41.858 86.7631 -164.426 8.86533 99.3221 -91.2307 2.05892 3.08912 63.1841 3.75524 6.25985 25.8047 -1.05861 -2.15899 174.701 32.7222 98.5143 -54.4565 -18.8308 1.24496 65.6579 -4.12302 -5.40595 16.8436 2.27734 7.72133 -1.2425 8.06082 -91.4561 10.707 -3.14485 -2.60309 -0.962469 -3.25632 -2.46215 -23.494 -2.21772 -3.42749 -3.4813 -2.2177 -3.42749 93.1396 -28.2197 -101.008 34.6611 4.48696 18.1048 -49.4514 -30.418 -72.5223 -40.7272 -0.208556 -16.0361 -92.6708 -56.621 76.3592 -10.3539 -5.33724 -15.9717 77.187 10.763 -93.7097 43.8472 4.72321 6.87337 19.7774 12.837 9.99704 -16.7594 9.52285 -1.03538 
-178.674 87.5564 176.96 103.189 41.3419 87.374 -164.915 26.0908 92.8218 -99.1293 5.87524 3.5191 65.6784 5.90925 6.43674 20.9993 -3.56105 -1.96474 173.747 29.4728 98.1362 -59.4548 -20.2443 1.17232 71.707 -8.75093 -7.35706 17.6604 2.13129 7.36085 -0.581389 8.02183 -91.5205 10.7983 -1.8594 -2.85252 -0.874165 -1.98311 -2.768 -23.3884 -0.91666 -3.27904 -3.37571 -0.91667 -3.27905 91.0546 -29.4616 -104.842 26.3385 0.588733 -1.52974 -44.9772 -28.1099 -70.1155 -42.4445 -1.39524 -10.7012 -92.0957 -57.3227 77.3064 -8.14984 -8.44862 -2.11201 75.6609 7.05455 -94.7527 41.2953 2.84023 2.9575 16.0208 10.39 11.0369 -14.7725 7.24879 -1.67974 
-173.013 88.8686 171.607 102.885 39.9058 84.8807 -163.203 36.7762 88.5855 -95.3196 3.85121 2.44311 69.4842 7.80564 5.99723 19.9217 -3.47674 -4.07455 174.103 24.4761 95.2592 -61.2156 -20.7052 -0.226755 75.4257 -11.6808 -7.74922 19.991 1.23209 8.5594 0.399258 7.88787 -91.1095 11.0966 0.279675 -2.23806 -0.576399 0.180947 -2.2482 -23.0972 0.939195 -2.05069 -3.08454 0.939217 -2.05069 92.4396 -23.829 -104.041 23.479 2.59952 -11.1702 -46.7366 -23.8363 -75.5367 -44.7021 -2.40646 -7.51021 -89.1471 -53.6732 80.7226 0.605705 -7.6225 5.22666 74.1335 2.1239 -96.1291 35.9871 3.34957 5.51522 13.5806 6.36643 9.45636 -15.7299 4.13367 -2.76075 
-166.893 92.2514 165.516 105.247 40.6281 80.7693 -164.712 38.2325 86.9702 -81.4039 2.53224 0.234878 73.1144 9.22586 4.33336 20.9757 -4.12519 -0.284298 173.739 17.585 91.5766 -59.8252 -20.8294 -1.17865 69.1065 -7.0318 -6.79898 26.531 -0.659793 9.6811 1.03166 8.09256 -90.5991 10.6987 1.77855 -1.35387 -0.971757 1.71724 -1.43084 -23.5145 2.10318 -0.756626 -3.50182 2.1032 -0.756625 93.9894 -18.2397 -102.587 19.8468 7.93632 -13.8245 -44.3148 -22.0291 -77.8149 -44.6081 -1.0527 -10.7564 -88.7061 -47.4145 80.1518 9.19311 -10.7706 9.54807 68.3268 2.91183 -94.8572 36.6737 2.5052 2.94192 9.46144 1.30541 3.60975 -11.9405 0.539589 -0.681272 
-160.306 96.4794 158.85 109.444 41.4389 75.1377 -168.367 32.1374 86.8504 -62.8461 4.5334 -1.95141 73.0737 8.71494 1.2249 25.4305 -2.02124 0.870398 175.105 10.5972 88.5155 -57.2083 -19.1056 -3.4118 54.5384 3.32496 -1.33525 31.9343 -2.47077 14.7647 1.2009 8.44706 -90.1693 9.98588 2.31632 -0.528266 -1.68316 2.29083 -0.629762 -24.2349 2.36794 0.192694 -4.22223 2.36793 0.192693 94.9793 -14.1465 -101.719 16.8128 9.64498 -10.8683 -42.0469 -20.3447 -76.3203 -43.5751 -1.1106 -9.98327 -88.0541 -42.5881 80.1743 15.2278 -10.9107 12.7772 65.204 4.37504 -92.7526 32.5427 1.50141 0.508195 2.15769 -1.08371 -0.499171 -8.27636 -1.0012 -0.222393 
